<?xml version="1.0" encoding="UTF-8" standalone="no"?>
<!-- Licensed under CC-BY-SA 4.0 - https://github.com/6gk -->

<svg
   fill="#695b98"
   width="72.390495"
   height="15.527696"
   version="1.1"
   id="svg4"
   sodipodi:docname="kmonad.svg"
   inkscape:export-filename="kmonad.png"
   inkscape:export-xdpi="96"
   inkscape:export-ydpi="96"
   inkscape:version="1.3 (0e150ed6c4, 2023-07-21)"
   xmlns:inkscape="http://www.inkscape.org/namespaces/inkscape"
   xmlns:sodipodi="http://sodipodi.sourceforge.net/DTD/sodipodi-0.dtd"
   xmlns="http://www.w3.org/2000/svg"
   xmlns:svg="http://www.w3.org/2000/svg">
  <defs
     id="defs4" />
  <sodipodi:namedview
     id="namedview4"
     pagecolor="#ffffff"
     bordercolor="#000000"
     borderopacity="0.25"
     inkscape:showpageshadow="2"
     inkscape:pageopacity="0.0"
     inkscape:pagecheckerboard="0"
     inkscape:deskcolor="#d1d1d1"
     inkscape:zoom="7.0727517"
     inkscape:cx="34.639983"
     inkscape:cy="7.5642412"
     inkscape:window-width="1920"
     inkscape:window-height="1061"
     inkscape:window-x="0"
     inkscape:window-y="19"
     inkscape:window-maximized="1"
     inkscape:current-layer="svg4" />
  <path
     d="M 0,0.05287657 H 3.2150437 V 15.527696 H 0 Z"
     id="path1"
     style="stroke-width:0.968387" />
  <path
     d="m 2.3628634,7.8096536 5.08403,-7.7761448 H 11.32044 L 6.2170423,7.780602 11.301072,15.527696 H 7.4565772 Z"
     id="path2"
     style="stroke-width:0.968387" />
  <path
     fill="#985b94"
     d="M 7.5049966,7.8096536 12.59871,0.0335088 h 3.863863 l -5.08403,7.7470932 5.08403,7.747094 h -3.873546 z"
     id="path3"
     style="stroke-width:0.968387" />
  <path
     d="m 21.950495,0 2.93,11.21 2.91,-11.19 h 4.08 v 15.5 h -3.13 v -4.2 l 0.3,-6.46 -3.1,10.65 h -2.14 l -3.1,-10.65 0.3,6.46 v 4.2 h -3.16 V 0 Z m 11.3,9.41 c 0,-1.6733333 0.396667,-2.99 1.19,-3.95 0.786667,-0.9533333 1.88,-1.43 3.28,-1.43 1.4,0 2.5,0.4766667 3.3,1.43 0.786667,0.96 1.18,2.2833333 1.18,3.97 v 0.7 c 0,1.686667 -0.39,3.003333 -1.17,3.95 -0.786667,0.946667 -1.886667,1.42 -3.3,1.42 -1.413333,0 -2.513333,-0.473333 -3.3,-1.42 -0.786667,-0.953333 -1.18,-2.276667 -1.18,-3.97 z m 2.9,0.72 c 0,1.98 0.53,2.97 1.59,2.97 0.973333,0 1.496667,-0.826667 1.57,-2.48 V 9.41 c 0,-1.0066667 -0.136667,-1.7533333 -0.41,-2.24 -0.28,-0.4866667 -0.673333,-0.73 -1.18,-0.73 -0.493333,0 -0.88,0.2433333 -1.16,0.73 -0.266667,0.4866667 -0.4,1.2333333 -0.4,2.24 z m 10.5,-5.67 0.08,1.1 c 0.653333,-0.8666667 1.51,-1.3 2.57,-1.3 1.9,0 2.876667,1.3333333 2.93,4 v 7.26 h -2.9 V 8.47 c 0,-0.6266667 -0.1,-1.08 -0.3,-1.36 -0.18,-0.2866667 -0.503333,-0.43 -0.97,-0.43 -0.533333,0 -0.943333,0.2666667 -1.23,0.8 v 8.04 h -2.9 V 4.46 Z m 12.9,10.86 c -0.08,-0.173333 -0.16,-0.463333 -0.24,-0.87 -0.52,0.713333 -1.22,1.07 -2.1,1.07 -0.933333,0 -1.703333,-0.306667 -2.31,-0.92 -0.606667,-0.613333 -0.91,-1.406667 -0.91,-2.38 0,-1.16 0.366667,-2.06 1.1,-2.7 0.733333,-0.6266667 1.8,-0.9466667 3.2,-0.96 h 0.88 V 7.67 c 0,-0.5 -0.08667,-0.85 -0.26,-1.05 -0.166667,-0.2 -0.413333,-0.3 -0.74,-0.3 -0.733333,0 -1.1,0.42 -1.1,1.26 h -2.88 c 0,-1.0266667 0.38,-1.87 1.14,-2.53 0.773333,-0.6666667 1.746667,-1 2.92,-1 1.213333,0 2.146667,0.3166667 2.8,0.95 0.666667,0.6266667 1,1.5266667 1,2.7 v 5.2 c 0.02,0.953333 0.16,1.7 0.42,2.24 v 0.17 z m -1.7,-2.07 c 0.32,0 0.593333,-0.06667 0.82,-0.2 0.22,-0.126667 0.386667,-0.28 0.5,-0.46 v -2.3 h -0.7 c -0.486667,0 -0.873333,0.16 -1.16,0.48 -0.28,0.313333 -0.42,0.73 -0.42,1.25 0,0.82 0.32,1.23 0.96,1.23 z m 5.92,-3.81 c 0,-1.8133333 0.3,-3.1666667 0.9,-4.06 0.62,-0.8933333 1.516667,-1.34 2.69,-1.34 0.853333,0 1.563333,0.3666667 2.13,1.1 L 69.461345,0.02315717 72.381123,0.02377781 72.390495,15.32 h -2.62 l -0.13,-1.13 c -0.6,0.886667 -1.366667,1.33 -2.3,1.33 -1.153333,0 -2.033333,-0.443333 -2.64,-1.33 -0.606667,-0.886667 -0.916667,-2.186667 -0.93,-3.9 z m 2.9,0.73 c 0,1.086667 0.113333,1.846667 0.34,2.28 0.233333,0.433333 0.626667,0.65 1.18,0.65 0.573333,0 1.006667,-0.256667 1.3,-0.77 V 7.28 c -0.286667,-0.54 -0.72,-0.81 -1.3,-0.81 -0.533333,0 -0.916667,0.2133333 -1.15,0.64 -0.246667,0.4266667 -0.37,1.19 -0.37,2.29 z"
     id="path4"
     sodipodi:nodetypes="ccccccccccccccccscscsscscsscscscscccccscccscscccccccssscccscscccscsccccscccscssscsccccccsscsscsccscss" />
</svg>
