<!-- Licensed under CC-BY-SA 4.0 - https://github.com/6gk -->
<svg fill="#695b98" width="74" height="16" xmlns="http://www.w3.org/2000/svg">
<path d="M0 .02h3.32V16H0z"/>
<path d="M2.44 8.03L7.69 0h4L6.42 8l5.25 8H7.7z"/>
<path fill="#985b94" d="M7.75 8.03L13.01 0H17l-5.25 8L17 16h-4z"/>
<path d="M23.16.48l2.93 11.21L29 .5h4.08V16h-3.13v-4.2l.3-6.46-3.1 10.65h-2.14l-3.1-10.65.3 6.46V16h-3.16V.48zm11.3 9.41q0-2.51 1.19-3.95 1.18-1.43 3.28-1.43 2.1 0 3.3 1.43 1.18 1.44 1.18 3.97v.7q0 2.53-1.17 3.95-1.18 1.42-3.3 1.42t-3.3-1.42q-1.18-1.43-1.18-3.97zm2.9.72q0 2.97 1.59 2.97 1.46 0 1.57-2.48V9.89q0-1.51-.41-2.24-.42-.73-1.18-.73-.74 0-1.16.73-.4.73-.4 2.24zm10.5-5.67l.08 1.1q.98-1.3 2.57-1.3 2.85 0 2.93 4V16h-2.9V8.95q0-.94-.3-1.36-.27-.43-.97-.43-.8 0-1.23.8V16h-2.9V4.94zm12.9 10.86q-.12-.26-.24-.87-.78 1.07-2.1 1.07-1.4 0-2.31-.92-.91-.92-.91-2.38 0-1.74 1.1-2.7 1.1-.94 3.2-.96h.88v-.89q0-.75-.26-1.05-.25-.3-.74-.3-1.1 0-1.1 1.26H55.4q0-1.54 1.14-2.53 1.16-1 2.92-1 1.82 0 2.8.95 1 .94 1 2.7v5.2q.03 1.43.42 2.24v.17zm-1.7-2.07q.48 0 .82-.2.33-.19.5-.46v-2.3h-.7q-.73 0-1.16.48-.42.47-.42 1.25 0 1.23.96 1.23zm5.92-3.81q0-2.72.9-4.06.93-1.34 2.69-1.34 1.28 0 2.13 1.1V.1h2.9v15.7h-2.62l-.13-1.13q-.9 1.33-2.3 1.33-1.73 0-2.64-1.33-.91-1.33-.93-3.9zm2.9.73q0 1.63.34 2.28.35.65 1.18.65.86 0 1.3-.77V7.76q-.43-.81-1.3-.81-.8 0-1.15.64-.37.64-.37 2.29z"/>
</svg>
